<svg width="110" height="31" viewBox="0 0 110 31" fill="none" xmlns="http://www.w3.org/2000/svg">
<path d="M14.08 17.24C14.08 16.6267 13.7067 16.2933 12.96 16.24H10.12C9.90667 16.24 9.8 16.1733 9.8 16.04C9.96 15.2667 10.24 14.6533 10.64 14.2C11.04 13.72 11.3733 13.4533 11.64 13.4C12.3867 13.2933 13.6133 13.24 15.32 13.24C17.0267 13.24 18.0933 13.2533 18.52 13.28C18.9467 13.28 19.2133 13.32 19.32 13.4C19.4267 13.5333 19.48 13.6933 19.48 13.88C19.48 14.04 19.4267 15.1467 19.32 17.2C19.24 19.2267 19.2 21.0533 19.2 22.68C19.2 24.28 19.2533 25.2933 19.36 25.72C19.4667 26.12 19.52 26.3733 19.52 26.48C19.52 26.9067 19.1467 27.3733 18.4 27.88C17.6533 28.36 16.52 28.7867 15 29.16C13.5067 29.5333 11.8533 29.72 10.04 29.72C7.61333 29.72 5.50667 28.88 3.72 27.2C2.33333 25.8667 1.37333 24.4133 0.84 22.84C0.333333 21.2667 0.08 19.0533 0.08 16.2C0.08 5.61333 3.96 0.32 11.72 0.32C13.0267 0.32 14.2 0.466666 15.24 0.759999C16.28 1.02667 17.1867 1.57333 17.96 2.4C18.76 3.2 19.16 4.24 19.16 5.52C19.16 6.18667 19.0267 6.86667 18.76 7.56C18.28 8.97333 17.2133 9.68 15.56 9.68C14.6533 9.68 13.96 9.45333 13.48 9C13.0267 8.52 12.8 7.86667 12.8 7.04C12.8 6.72 12.9733 6.52 13.32 6.44C13.8267 6.14667 14.08 5.65333 14.08 4.96C14.08 4.24 13.8133 3.69333 13.28 3.32C12.7467 2.92 12.1867 2.72 11.6 2.72C10.32 2.72 9.24 3.18667 8.36 4.12C7.48 5.02667 6.84 6.22667 6.44 7.72C5.77333 10.3867 5.44 13.1067 5.44 15.88C5.44 20.4133 6.54667 23.4267 8.76 24.92C9.58667 25.5067 10.4533 25.8 11.36 25.8C13.04 25.8 13.9333 25.4933 14.04 24.88C14.12 24.0533 14.16 22.7733 14.16 21.04L14.08 17.24ZM25.4844 18.84L25.5244 19.84C25.5244 20 25.631 20.08 25.8444 20.08C26.6977 20 27.4444 19.7867 28.0844 19.44C28.7244 19.0667 29.2044 18.6533 29.5244 18.2C30.1644 17.2133 30.511 16.36 30.5644 15.64L30.6044 15.16C30.6044 13.72 30.031 13 28.8844 13C28.031 13 27.3377 13.3733 26.8044 14.12C25.9244 15.2933 25.4844 16.8667 25.4844 18.84ZM34.2044 24.16C34.2044 25.1733 33.991 26.0667 33.5644 26.84C33.1644 27.5867 32.6977 28.1467 32.1644 28.52C31.6577 28.8667 31.0577 29.1467 30.3644 29.36C29.4844 29.6267 28.6444 29.76 27.8444 29.76C25.6044 29.76 23.951 28.92 22.8844 27.24C21.8177 25.56 21.2844 23.4267 21.2844 20.84C21.2844 18.2267 21.9377 15.9067 23.2444 13.88C24.5777 11.8533 26.5644 10.84 29.2044 10.84C31.6044 10.84 33.231 11.68 34.0844 13.36C34.431 14 34.6044 14.6133 34.6044 15.2C34.6044 15.76 34.5777 16.2133 34.5244 16.56C34.471 16.88 34.2844 17.3733 33.9644 18.04C33.6444 18.7067 33.2177 19.3067 32.6844 19.84C32.151 20.3733 31.311 20.88 30.1644 21.36C29.0177 21.84 27.671 22.16 26.1244 22.32C25.911 22.32 25.8044 22.4133 25.8044 22.6C25.8044 22.84 25.8844 23.2 26.0444 23.68C26.231 24.1333 26.431 24.52 26.6444 24.84C27.231 25.5867 28.0977 25.96 29.2444 25.96C30.391 25.96 31.3644 25.5867 32.1644 24.84C32.591 24.44 32.9377 23.9467 33.2044 23.36C33.311 23.1467 33.4444 23.04 33.6044 23.04C33.791 23.04 33.9377 23.1867 34.0444 23.48C34.151 23.7733 34.2044 24 34.2044 24.16ZM35.8109 13.4L35.9309 11.8C35.9576 11.56 36.1443 11.44 36.4909 11.44H37.8909L37.7309 8.24V8.08C37.7309 7.46667 38.1976 6.88 39.1309 6.32C40.0643 5.76 40.9176 5.48 41.6909 5.48C41.9309 5.48 42.0509 5.58667 42.0509 5.8V5.84C41.9443 6.56 41.8376 8.41333 41.7309 11.4C42.9043 11.4 43.6509 11.3733 43.9709 11.32C44.2909 11.2667 44.4643 11.24 44.4909 11.24C44.6776 11.24 44.7709 11.4 44.7709 11.72C44.7709 12.04 44.6243 12.4533 44.3309 12.96C44.0376 13.44 43.7176 13.6933 43.3709 13.72H41.6909C41.6643 14.6267 41.6509 16.16 41.6509 18.32C41.6509 20.4533 41.6643 22.2133 41.6909 23.6C41.7443 24.9867 41.7976 26.04 41.8509 26.76C41.9043 27.4533 41.9576 28.0133 42.0109 28.44C42.0909 28.8667 42.1443 29.1733 42.1709 29.36C42.2243 29.5467 42.2509 29.6667 42.2509 29.72C42.2509 29.9867 42.0776 30.1333 41.7309 30.16C40.6909 30.16 39.6509 30.0133 38.6109 29.72C37.5976 29.4267 37.0909 28.92 37.0909 28.2C37.6509 23.72 37.9309 18.9067 37.9309 13.76C37.2109 13.76 36.6643 13.7867 36.2909 13.84H36.2509C36.0109 13.84 35.8643 13.6933 35.8109 13.4ZM49.5563 19.64C49.3963 19.0533 48.9696 17.1467 48.2763 13.92C47.5829 10.6933 46.8763 8.12 46.1563 6.2C45.4363 4.28 44.5829 3 43.5962 2.36C43.3296 2.22667 43.1962 2.05333 43.1962 1.84C43.1962 1.33333 43.9163 0.919999 45.3563 0.599998C46.7963 0.279998 47.9029 0.119998 48.6763 0.119998C49.4763 0.119998 49.9563 0.346664 50.1163 0.799998C50.5963 1.78666 51.2096 4 51.9563 7.44C53.4763 14.64 54.5963 19.1733 55.3163 21.04C55.4763 21.4133 55.6763 21.6 55.9162 21.6C56.1563 21.6 56.3963 21.3733 56.6363 20.92C56.9029 20.44 57.2496 19.7733 57.6763 18.92C58.1296 18.04 58.7296 16.4933 59.4763 14.28C60.2229 12.0667 60.5963 10.1467 60.5963 8.52C60.5963 6.01333 59.7696 4.24 58.1163 3.2C57.9829 3.04 57.9163 2.86667 57.9163 2.68C57.9163 2.12 58.6896 1.56 60.2363 0.999998C61.7829 0.439999 63.1829 0.159999 64.4363 0.159999C65.2629 0.159999 65.6763 0.546666 65.6763 1.32C65.6763 3.72 65.1963 6.50666 64.2363 9.68C63.2763 12.8267 62.1296 15.76 60.7963 18.48C59.4629 21.1733 58.2229 23.5067 57.0763 25.48C55.2629 28.5467 54.1163 30.08 53.6363 30.08C53.3963 30.08 53.1696 29.8933 52.9563 29.52C52.1563 28.3733 51.1963 25.7467 50.0763 21.64L49.5563 19.64ZM70.3356 7.6L69.3756 7.56C68.6556 7.56 68.189 7.73333 67.9756 8.08C67.9223 8.16 67.8556 8.2 67.7756 8.2C67.429 8.2 67.2556 7.61333 67.2556 6.44C67.2556 5.24 67.429 4.48 67.7756 4.16C68.149 3.84 68.7756 3.68 69.6556 3.68C70.5623 3.68 71.1756 3.84 71.4956 4.16C71.8156 4.45333 71.9756 4.96 71.9756 5.68C71.9756 6.4 71.8556 6.90667 71.6156 7.2C71.3756 7.46667 70.949 7.6 70.3356 7.6ZM67.1356 27.8L67.5756 18.48C67.5756 16.2667 67.3223 14.76 66.8156 13.96C66.6556 13.6933 66.469 13.4933 66.2556 13.36C66.0956 13.3067 66.0156 13.2 66.0156 13.04C66.0156 12.56 66.6956 12.0933 68.0556 11.64C69.4156 11.1867 70.4023 10.96 71.0156 10.96C71.6556 10.96 71.989 11.12 72.0156 11.44C72.0156 11.9733 71.9356 13.4933 71.7756 16C71.6423 18.48 71.5756 21.0933 71.5756 23.84C71.5756 26.5867 71.7356 28.2933 72.0556 28.96C72.1356 29.0933 72.1756 29.2267 72.1756 29.36C72.1756 29.7067 71.669 29.88 70.6556 29.88C69.6423 29.88 68.6023 29.6133 67.5356 29.08C67.269 28.9467 67.1356 28.52 67.1356 27.8ZM86.8141 18.28L86.9741 19.68C86.9741 20.1867 86.4941 20.44 85.5341 20.44C83.5874 20.44 82.6141 19.7067 82.6141 18.24C82.6141 17.8933 82.7074 17.4133 82.8941 16.8C83.0807 16.1867 83.1741 15.6533 83.1741 15.2C83.1741 14.7467 83.0407 14.36 82.7741 14.04C82.5074 13.6933 82.1207 13.52 81.6141 13.52C81.1074 13.52 80.6674 13.7067 80.2941 14.08C79.9474 14.4267 79.7341 14.7867 79.6541 15.16L79.4941 15.72C79.3341 16.5467 79.2541 17.9333 79.2541 19.88C79.2541 21.8 79.2807 23.32 79.3341 24.44C79.3874 25.5333 79.4407 26.2933 79.4941 26.72C79.5474 27.12 79.5741 27.36 79.5741 27.44C79.5741 28.1067 79.1607 28.64 78.3341 29.04C77.5074 29.4667 76.6807 29.68 75.8541 29.68C75.0274 29.68 74.6141 29.5067 74.6141 29.16L74.8141 27.92C75.1874 25.6 75.3741 22.5733 75.3741 18.84C75.3741 15.1067 75.2407 12.5733 74.9741 11.24C74.9741 10.92 75.2541 10.76 75.8141 10.76C77.2541 10.76 78.2141 11.2533 78.6941 12.24C78.7207 12.3467 78.7607 12.4 78.8141 12.4C78.8941 12.4 79.0807 12.28 79.3741 12.04C80.2541 11.32 81.2941 10.96 82.4941 10.96C83.2407 10.96 83.9874 11.1067 84.7341 11.4C86.2541 12.0133 87.0141 13.2933 87.0141 15.24L86.8141 18.28ZM101.255 17L101.175 22.12C101.175 25.6667 101.562 27.8 102.335 28.52C102.442 28.6267 102.495 28.7467 102.495 28.88C102.495 29.28 101.629 29.48 99.8953 29.48C98.1886 29.48 97.282 28.9733 97.1753 27.96C97.1486 27.72 97.1353 27.2267 97.1353 26.48L97.2953 20.08C97.2953 19.8933 97.1886 19.8 96.9753 19.8C95.6953 19.8 94.4953 20.16 93.3753 20.88C92.2553 21.6 91.6953 22.52 91.6953 23.64C91.6953 24.2267 91.8553 24.72 92.1753 25.12C92.4953 25.52 92.882 25.72 93.3353 25.72C93.8153 25.72 94.202 25.6267 94.4953 25.44C94.8153 25.2533 95.002 25.1467 95.0553 25.12C95.5086 25.1733 95.7353 25.6533 95.7353 26.56C95.7353 27.44 95.322 28.16 94.4953 28.72C93.6686 29.2533 92.802 29.52 91.8953 29.52C90.9886 29.52 90.202 29.36 89.5353 29.04C88.8953 28.72 88.4286 28.36 88.1353 27.96C87.842 27.56 87.602 27.1067 87.4153 26.6C87.2286 25.9867 87.1353 25.4533 87.1353 25C87.1353 23.1333 87.722 21.64 88.8953 20.52C90.0686 19.4 91.5753 18.6 93.4153 18.12C95.842 17.64 97.1086 17.2 97.2153 16.8C97.2953 16.5067 97.3353 16.0133 97.3353 15.32C97.3353 13.9067 96.6153 13.2 95.1753 13.2C94.562 13.2 94.0153 13.4 93.5353 13.8C93.0553 14.1733 92.8153 14.6533 92.8153 15.24L93.0553 16.2C93.002 16.6533 92.522 16.92 91.6153 17L91.1753 17.04C90.3753 17.04 89.7353 16.84 89.2553 16.44C88.802 16.04 88.5753 15.5067 88.5753 14.84C88.5753 14.4133 88.7086 13.9467 88.9753 13.44C89.2686 12.9067 89.6286 12.48 90.0553 12.16C90.482 11.84 91.1353 11.56 92.0153 11.32C92.922 11.0533 93.7886 10.92 94.6153 10.92C95.442 10.92 96.082 10.9467 96.5353 11C96.9886 11.0533 97.602 11.1867 98.3753 11.4C99.1753 11.5867 99.8286 11.96 100.335 12.52C100.869 13.08 101.149 13.68 101.175 14.32C101.229 14.9333 101.255 15.8267 101.255 17ZM108.686 6.12L108.446 20.8C108.446 25.3867 108.593 28.1333 108.886 29.04C108.966 29.2 109.006 29.36 109.006 29.52C109.006 29.84 108.619 30 107.846 30C107.073 30 106.206 29.8 105.246 29.4C104.313 29.0267 103.846 28.5333 103.846 27.92C104.379 24.1867 104.646 19.2 104.646 12.96L104.486 6.84C104.433 6.09333 104.273 5.45333 104.006 4.92C103.766 4.38666 103.526 4.04 103.286 3.88L102.966 3.68C102.779 3.57333 102.686 3.45333 102.686 3.32C102.686 2.94667 103.259 2.49333 104.406 1.96C105.579 1.4 106.713 1.12 107.806 1.12C108.233 1.12 108.473 1.26667 108.526 1.56C108.633 2.25333 108.686 3.77333 108.686 6.12Z" fill="#362F74"/>
</svg>
